<svg xmlns="http://www.w3.org/2000/svg" xmlns:xlink="http://www.w3.org/1999/xlink" aria-hidden="true" style="position:absolute;width:0;height:0;overflow:hidden" version="1.1"><defs><symbol id="icon-arrow-link" viewBox="0 0 30 32"><path stroke-linecap="butt" stroke-linejoin="miter" stroke-miterlimit="4" stroke-width="4.9231" d="M8.615 4.923l11.077 11.077-11.077 11.077"/></symbol><symbol id="icon-close" viewBox="0 0 32 32"><path stroke-linecap="butt" stroke-linejoin="miter" stroke-miterlimit="4" stroke-width="2" d="M7 7l18 18"/><path stroke-linecap="butt" stroke-linejoin="miter" stroke-miterlimit="4" stroke-width="2" d="M25 7l-18 18"/></symbol><symbol id="icon-coprorate" viewBox="0 0 32 32"><path d="M30.263 18.864c-0.344-0.142-0.706-0.215-1.076-0.215-0.816 0-1.57 0.348-2.093 0.932l-2.35-0.973c0.247-0.827 0.38-1.702 0.38-2.607s-0.133-1.781-0.38-2.607l2.35-0.973c0.523 0.584 1.277 0.932 2.093 0.932 0.37 0 0.732-0.072 1.076-0.215 1.433-0.594 2.116-2.242 1.522-3.675-0.437-1.055-1.457-1.737-2.599-1.737-0.37 0-0.732 0.072-1.076 0.215-1.129 0.468-1.792 1.591-1.732 2.747l-2.353 0.975c-0.845-1.557-2.13-2.842-3.687-3.687l0.974-2.352c0.049 0.003 0.099 0.004 0.148 0.004 1.142 0 2.162-0.682 2.599-1.737 0.593-1.433-0.089-3.081-1.522-3.675-0.344-0.142-0.706-0.214-1.076-0.214-1.142 0-2.162 0.682-2.599 1.737-0.468 1.129-0.142 2.392 0.718 3.167l-0.974 2.351c-0.827-0.247-1.702-0.38-2.607-0.38s-1.781 0.133-2.607 0.38l-0.974-2.351c0.86-0.775 1.185-2.038 0.718-3.167-0.437-1.055-1.457-1.737-2.599-1.737-0.37 0-0.732 0.072-1.076 0.215-1.433 0.593-2.116 2.242-1.522 3.675 0.437 1.055 1.457 1.737 2.599 1.737 0.050 0 0.099-0.002 0.148-0.004l0.974 2.352c-1.557 0.845-2.842 2.13-3.687 3.687l-2.353-0.975c0.060-1.156-0.603-2.279-1.732-2.747-0.344-0.142-0.706-0.215-1.076-0.215-1.142 0-2.162 0.682-2.599 1.737-0.593 1.433 0.089 3.081 1.522 3.675 0.344 0.142 0.706 0.215 1.076 0.215 0.816 0 1.569-0.348 2.093-0.932l2.35 0.973c-0.247 0.827-0.38 1.702-0.38 2.607s0.133 1.781 0.38 2.607l-2.35 0.973c-0.523-0.583-1.277-0.932-2.093-0.932-0.37 0-0.732 0.072-1.076 0.215-1.433 0.593-2.116 2.242-1.522 3.675 0.437 1.055 1.457 1.737 2.599 1.737 0.37 0 0.732-0.072 1.076-0.215 1.129-0.468 1.792-1.591 1.732-2.747l2.353-0.975c0.845 1.557 2.13 2.842 3.687 3.687l-0.974 2.352c-0.049-0.003-0.098-0.004-0.148-0.004-1.142 0-2.162 0.682-2.599 1.737-0.593 1.433 0.089 3.081 1.522 3.675 0.344 0.142 0.706 0.215 1.076 0.215 1.142 0 2.162-0.682 2.599-1.737 0.468-1.129 0.142-2.392-0.718-3.167l0.974-2.351c0.827 0.247 1.702 0.38 2.607 0.38s1.781-0.133 2.607-0.38l0.974 2.351c-0.86 0.775-1.185 2.038-0.718 3.167 0.437 1.055 1.457 1.737 2.599 1.737 0.37 0 0.732-0.072 1.076-0.215 1.433-0.593 2.116-2.242 1.522-3.675-0.437-1.055-1.457-1.737-2.599-1.737-0.049 0-0.099 0.002-0.148 0.004l-0.974-2.352c1.557-0.845 2.842-2.13 3.687-3.687l2.353 0.975c-0.060 1.156 0.603 2.279 1.732 2.747 0.344 0.142 0.706 0.215 1.076 0.215 1.142 0 2.162-0.682 2.599-1.737 0.594-1.433-0.089-3.081-1.522-3.675zM16 23.25c-3.998 0-7.25-3.252-7.25-7.25s3.252-7.25 7.25-7.25c3.998 0 7.25 3.252 7.25 7.25s-3.252 7.25-7.25 7.25z"/><path d="M30.263 18.864c-0.344-0.142-0.706-0.215-1.076-0.215-0.816 0-1.57 0.348-2.093 0.932l-2.35-0.973c0.247-0.827 0.38-1.702 0.38-2.607s-0.133-1.781-0.38-2.607l2.35-0.973c0.523 0.584 1.277 0.932 2.093 0.932 0.37 0 0.732-0.072 1.076-0.215 1.433-0.594 2.116-2.242 1.522-3.675-0.437-1.055-1.457-1.737-2.599-1.737-0.37 0-0.732 0.072-1.076 0.215-1.129 0.468-1.792 1.591-1.732 2.747l-2.353 0.975c-0.845-1.557-2.13-2.842-3.687-3.687l0.974-2.352c0.049 0.003 0.099 0.004 0.148 0.004 1.142 0 2.162-0.682 2.599-1.737 0.593-1.433-0.089-3.081-1.522-3.675-0.344-0.142-0.706-0.214-1.076-0.214-1.142 0-2.162 0.682-2.599 1.737-0.468 1.129-0.142 2.392 0.718 3.167l-0.974 2.351c-0.827-0.247-1.702-0.38-2.607-0.38s-1.781 0.133-2.607 0.38l-0.974-2.351c0.86-0.775 1.185-2.038 0.718-3.167-0.437-1.055-1.457-1.737-2.599-1.737-0.37 0-0.732 0.072-1.076 0.215-1.433 0.593-2.116 2.242-1.522 3.675 0.437 1.055 1.457 1.737 2.599 1.737 0.050 0 0.099-0.002 0.148-0.004l0.974 2.352c-1.557 0.845-2.842 2.13-3.687 3.687l-2.353-0.975c0.060-1.156-0.603-2.279-1.732-2.747-0.344-0.142-0.706-0.215-1.076-0.215-1.142 0-2.162 0.682-2.599 1.737-0.593 1.433 0.089 3.081 1.522 3.675 0.344 0.142 0.706 0.215 1.076 0.215 0.816 0 1.569-0.348 2.093-0.932l2.35 0.973c-0.247 0.827-0.38 1.702-0.38 2.607s0.133 1.781 0.38 2.607l-2.35 0.973c-0.523-0.583-1.277-0.932-2.093-0.932-0.37 0-0.732 0.072-1.076 0.215-1.433 0.593-2.116 2.242-1.522 3.675 0.437 1.055 1.457 1.737 2.599 1.737 0.37 0 0.732-0.072 1.076-0.215 1.129-0.468 1.792-1.591 1.732-2.747l2.353-0.975c0.845 1.557 2.13 2.842 3.687 3.687l-0.974 2.352c-0.049-0.003-0.098-0.004-0.148-0.004-1.142 0-2.162 0.682-2.599 1.737-0.593 1.433 0.089 3.081 1.522 3.675 0.344 0.142 0.706 0.215 1.076 0.215 1.142 0 2.162-0.682 2.599-1.737 0.468-1.129 0.142-2.392-0.718-3.167l0.974-2.351c0.827 0.247 1.702 0.38 2.607 0.38s1.781-0.133 2.607-0.38l0.974 2.351c-0.86 0.775-1.185 2.038-0.718 3.167 0.437 1.055 1.457 1.737 2.599 1.737 0.37 0 0.732-0.072 1.076-0.215 1.433-0.593 2.116-2.242 1.522-3.675-0.437-1.055-1.457-1.737-2.599-1.737-0.049 0-0.099 0.002-0.148 0.004l-0.974-2.352c1.557-0.845 2.842-2.13 3.687-3.687l2.353 0.975c-0.060 1.156 0.603 2.279 1.732 2.747 0.344 0.142 0.706 0.215 1.076 0.215 1.142 0 2.162-0.682 2.599-1.737 0.594-1.433-0.089-3.081-1.522-3.675zM16 23.25c-3.998 0-7.25-3.252-7.25-7.25s3.252-7.25 7.25-7.25c3.998 0 7.25 3.252 7.25 7.25s-3.252 7.25-7.25 7.25z"/><path d="M16 10.625c-2.964 0-5.375 2.411-5.375 5.375s2.411 5.375 5.375 5.375c2.964 0 5.375-2.411 5.375-5.375s-2.411-5.375-5.375-5.375zM16.938 18.063h-1.875v-4.125h1.875v4.125z"/><path d="M16 10.625c-2.964 0-5.375 2.411-5.375 5.375s2.411 5.375 5.375 5.375c2.964 0 5.375-2.411 5.375-5.375s-2.411-5.375-5.375-5.375zM16.938 18.063h-1.875v-4.125h1.875v4.125z"/></symbol><symbol id="icon-court" viewBox="0 0 32 32"><path d="M20.176 10.194c0.366 0.366 0.959 0.367 1.325 0l1.304-1.304c0.366-0.366 0.364-0.959 0-1.325l-3.291-3.29c-0.365-0.366-0.958-0.366-1.324 0l-1.305 1.304c-0.365 0.366-0.365 0.959 0 1.324l3.291 3.292z"/><path d="M12.383 18.133c0.366 0.364 0.959 0.364 1.324 0l1.304-1.305c0.366-0.365 0.366-0.959 0-1.325l-3.291-3.291c-0.366-0.365-0.959-0.366-1.325 0l-1.304 1.304c-0.366 0.366-0.365 0.959 0 1.325l3.292 3.292z"/><path d="M27.324 18.446l-1.323-1.325c-0.367-0.365-0.959-0.365-1.324 0l-0.581 0.58-5.602-5.604 1.213-1.214-3.366-3.365-3.947 3.946 3.366 3.367 1.189-1.187 5.601 5.603-0.524 0.524c-0.366 0.364-0.367 0.958 0 1.324l1.323 1.324c0.367 0.367 0.959 0.367 1.325 0l2.649-2.648c0.366-0.366 0.366-0.959 0-1.325z"/><path d="M17.538 22.471c0-0.599-0.486-1.087-1.087-1.087h-8.484c-0.6 0-1.087 0.487-1.087 1.087v1.764h-2.381v3.695h15.279v-3.695h-2.241v-1.764z"/></symbol><symbol id="icon-ecommerce" viewBox="0 0 32 32"><path fill="#000" d="M11.867 14.063c0.552 0 1-0.448 1-1v-3.9c0-1.744 1.418-3.162 3.162-3.162s3.163 1.419 3.163 3.162v3.9c0 0.552 0.448 1 1 1s1-0.448 1-1v-3.9c0-2.846-2.316-5.162-5.162-5.162s-5.162 2.316-5.162 5.162v3.9c0 0.552 0.448 1 1 1z" style="fill:var(--color1, #000)"/><path fill="#000" d="M27.5 11.815h-5.308v1.247c0 1.103-0.897 2-2 2s-2-0.897-2-2v-1.247h-4.325v1.247c0 1.103-0.897 2-2 2s-2-0.897-2-2v-1.247h-5.367c-0.276 0-0.447 0.217-0.381 0.486l3.499 14.248c0.211 0.801 1.054 1.451 1.882 1.451h13c0.829 0 1.671-0.649 1.883-1.45l3.498-14.248c0.066-0.268-0.105-0.486-0.381-0.486z" style="fill:var(--color1, #000)"/><path fill="#fff" d="M14.3 17.2c0-0.387 0.313-0.7 0.7-0.7s0.7 0.313 0.7 0.7v2.8c0-0.387 0.313-0.7 0.7-0.7s0.7 0.313 0.7 0.7v0.838c0.006-0.381 0.317-1.188 0.7-1.188 0.387 0 0.7 0.313 0.7 0.7 0 0 0.021 0.521 0.067 0.552 0.112-0.237 0.354-0.902 0.633-0.902 0.387 0 0.7 0.313 0.7 0.7v3.5c0 0.773-0.627 1.4-1.4 1.4h-2.34c-0.743 0-1.455-0.295-1.98-0.82l-1.105-1.105-1.575-0.705c0.003-0.668 0.526-0.87 1.050-0.87 0.451 0 0.857 0.070 1.75 0.525l0-5.425z" style="fill:var(--color2, #fff)"/></symbol><symbol id="icon-facebook-footer" viewBox="0 0 33 32"><path d="M32.421 16.098c0-8.891-7.163-16.098-16-16.098s-16 7.207-16 16.098c0 8.035 5.851 14.695 13.5 15.902v-11.249h-4.062v-4.653h4.062v-3.547c0-4.035 2.389-6.263 6.043-6.263 1.751 0 3.582 0.314 3.582 0.314v3.962h-2.018c-1.988 0-2.607 1.241-2.607 2.514v3.020h4.437l-0.709 4.653h-3.728v11.249c7.649-1.208 13.5-7.867 13.5-15.902z"/></symbol><symbol id="icon-facebook-logo" viewBox="0 0 31 32"><path d="M30.72 16.094c0-8.535-6.877-15.454-15.36-15.454s-15.36 6.919-15.36 15.454c0 7.714 5.617 14.107 12.96 15.266v-10.799h-3.9v-4.467h3.9v-3.405c0-3.873 2.293-6.013 5.802-6.013 1.68 0 3.438 0.302 3.438 0.302v3.803h-1.937c-1.908 0-2.503 1.191-2.503 2.413v2.899h4.26l-0.681 4.467h-3.579v10.799c7.343-1.159 12.96-7.553 12.96-15.266z"/></symbol><symbol id="icon-hamburger" viewBox="0 0 31 32"><path stroke-linecap="butt" stroke-linejoin="miter" stroke-miterlimit="4" stroke-width="1.9394" d="M6.788 10.182h17.455"/><path stroke-linecap="butt" stroke-linejoin="miter" stroke-miterlimit="4" stroke-width="1.9394" d="M6.788 16h17.455"/><path stroke-linecap="butt" stroke-linejoin="miter" stroke-miterlimit="4" stroke-width="1.9394" d="M6.788 21.818h17.455"/></symbol><symbol id="icon-protection" viewBox="0 0 32 32"><path d="M20.616 18.848c1.176 0 2.339 0.294 3.363 0.851 0.186 0.1 0.357 0.22 0.531 0.335 1.681-3.29 2.568-6.769 2.568-10.164 0-0.191 0-0.388-0.006-0.585-0.012-0.277-0.209-0.517-0.486-0.578-3.717-0.812-7.083-2.825-9.729-5.815l-0.394-0.449c-0.117-0.135-0.283-0.209-0.462-0.209-0.191-0.025-0.338 0.068-0.455 0.197l-0.603 0.665c-2.511 2.763-5.674 4.671-9.145 5.52l-0.4 0.098c-0.271 0.062-0.462 0.302-0.468 0.578-0.222 8.652 4.886 14.874 7.089 17.151 0.596 0.612 1.261 1.221 1.894 1.724-0.237-0.715-0.374-1.468-0.374-2.241 0-3.902 3.175-7.077 7.077-7.077z"/><path d="M23.391 20.78c-0.849-0.462-1.809-0.702-2.775-0.702-3.225 0-5.846 2.622-5.846 5.846 0 1.089 0.295 2.154 0.862 3.065 1.077 1.742 2.935 2.782 4.985 2.782 3.218 0 5.846-2.622 5.846-5.846 0-2.154-1.175-4.123-3.071-5.145zM23.61 25.146l-4.572 3.558-1.561-2.442c-0.183-0.286-0.099-0.667 0.187-0.85s0.667-0.099 0.85 0.187l0.834 1.304 3.507-2.729c0.268-0.209 0.655-0.161 0.864 0.108s0.16 0.655-0.108 0.864z"/></symbol><symbol id="icon-scroll-arrow" viewBox="0 0 32 32"><path stroke-linecap="butt" stroke-linejoin="miter" stroke-miterlimit="4" stroke-width="1.5238" d="M31.238 16c0 8.416-6.822 15.238-15.238 15.238s-15.238-6.822-15.238-15.238c0-8.416 6.822-15.238 15.238-15.238s15.238 6.822 15.238 15.238z"/><path stroke-linecap="butt" stroke-linejoin="miter" stroke-miterlimit="4" stroke-width="1.5238" d="M9.143 13.714l6.857 6.857 6.857-6.857"/></symbol><symbol id="icon-slash" viewBox="0 0 14 32"><path d="M10.332 0h3.966l-10.332 32h-3.966l10.332-32z"/></symbol><symbol id="icon-support" viewBox="0 0 32 32"><path d="M26.726 17.539v8.648c0 1.547-1.212 2.814-2.694 2.814h-16.047c-1.482 0-2.694-1.268-2.694-2.814v-8.648h8.333v3.755l2.384 1.567 2.384-1.567v-3.755h8.333z"/><path d="M14.459 17.539v3.304l1.549 1.018 1.549-1.018v-3.304h-3.098z"/><path d="M6.037 7.572h19.943c0.941 0 1.71 0.854 1.71 1.898v5.127c0 1.044-0.769 1.898-1.71 1.898h-19.943c-0.941 0-1.71-0.854-1.71-1.898v-5.127c0-1.044 0.769-1.898 1.71-1.898z"/><path d="M11.856 2.978h8.305c0.772 0 1.403 0.631 1.403 1.403v2.189h-1.779v-1.293c0-0.349-0.285-0.635-0.634-0.635h-6.286c-0.349 0-0.634 0.286-0.634 0.635v1.293h-1.779v-2.189c0-0.772 0.631-1.403 1.403-1.403z"/></symbol><symbol id="icon-trust" viewBox="0 0 32 32"><path d="M21.003 28h-9.5v3h9.5v-3z"/><path d="M21.003 28h-9.5v3h9.5v-3z"/><path d="M7.586 1.226l-6.718 6.718 1.768 1.768 6.718-6.718-1.768-1.768z"/><path d="M7.586 1.226l-6.718 6.718 1.768 1.768 6.718-6.718-1.768-1.768z"/><path d="M24.556 1.16l-1.768 1.768 6.718 6.717 1.768-1.768-6.718-6.718z"/><path d="M24.556 1.16l-1.768 1.768 6.718 6.717 1.768-1.768-6.718-6.718z"/><path d="M22.278 4.854l-1.346-0.057c-0.388-0.055-0.784-0.019-1.155 0.106s-0.709 0.333-0.986 0.61l-2.752 2.752-2.877-2.877c-0.25-0.244-0.561-0.415-0.901-0.495s-0.695-0.066-1.028 0.041c-0.314 0.095-0.647 0.104-0.965 0.024s-0.608-0.244-0.84-0.476l-0.427-0.427-5.303 5.303 0.864 0.864-0.057 1.346c-0.055 0.388-0.019 0.783 0.106 1.155s0.333 0.709 0.61 0.986l4.806 4.806c0.064-0.631 0.367-1.214 0.845-1.63l-1.498-1.497 0.354-0.354 1.564 1.564c0.222-0.126 0.462-0.217 0.711-0.27v-1.847l-0.861-0.861 0.354-0.354 0.508 0.508v-2.675c-0.006-0.442 0.151-0.871 0.441-1.205s0.692-0.55 1.13-0.607c0.165-0.016 0.332-0.008 0.495 0.022l-0.615-0.615 0.354-0.354 0.898 0.898c0.159-0.308 0.405-0.563 0.708-0.732s0.648-0.247 0.994-0.222c0.417 0.049 0.805 0.242 1.095 0.546s0.464 0.7 0.493 1.12c0.284-0.135 0.599-0.192 0.913-0.166 0.445 0.053 0.855 0.27 1.15 0.609s0.453 0.774 0.445 1.223v1.712c0.455 0.095 0.875 0.315 1.212 0.635s0.578 0.728 0.696 1.177l1.394-1.394 0.354 0.354-1.658 1.658c0 0.007 0.002 0.013 0.002 0.020v1.66c0.449-0.047 0.869-0.246 1.189-0.564l3.42-3.42c0.244-0.25 0.415-0.561 0.495-0.901s0.066-0.695-0.041-1.028c-0.095-0.314-0.104-0.647-0.024-0.965s0.244-0.608 0.476-0.84l0.427-0.427-5.303-5.303-0.864 0.864z"/><path d="M22.278 4.854l-1.346-0.057c-0.388-0.055-0.784-0.019-1.155 0.106s-0.709 0.333-0.986 0.61l-2.752 2.752-2.877-2.877c-0.25-0.244-0.561-0.415-0.901-0.495s-0.695-0.066-1.028 0.041c-0.314 0.095-0.647 0.104-0.965 0.024s-0.608-0.244-0.84-0.476l-0.427-0.427-5.303 5.303 0.864 0.864-0.057 1.346c-0.055 0.388-0.019 0.783 0.106 1.155s0.333 0.709 0.61 0.986l4.806 4.806c0.064-0.631 0.367-1.214 0.845-1.63l-1.498-1.497 0.354-0.354 1.564 1.564c0.222-0.126 0.462-0.217 0.711-0.27v-1.847l-0.861-0.861 0.354-0.354 0.508 0.508v-2.675c-0.006-0.442 0.151-0.871 0.441-1.205s0.692-0.55 1.13-0.607c0.165-0.016 0.332-0.008 0.495 0.022l-0.615-0.615 0.354-0.354 0.898 0.898c0.159-0.308 0.405-0.563 0.708-0.732s0.648-0.247 0.994-0.222c0.417 0.049 0.805 0.242 1.095 0.546s0.464 0.7 0.493 1.12c0.284-0.135 0.599-0.192 0.913-0.166 0.445 0.053 0.855 0.27 1.15 0.609s0.453 0.774 0.445 1.223v1.712c0.455 0.095 0.875 0.315 1.212 0.635s0.578 0.728 0.696 1.177l1.394-1.394 0.354 0.354-1.658 1.658c0 0.007 0.002 0.013 0.002 0.020v1.66c0.449-0.047 0.869-0.246 1.189-0.564l3.42-3.42c0.244-0.25 0.415-0.561 0.495-0.901s0.066-0.695-0.041-1.028c-0.095-0.314-0.104-0.647-0.024-0.965s0.244-0.608 0.476-0.84l0.427-0.427-5.303-5.303-0.864 0.864z"/><path d="M14.94 10.845c-0.038-0.325-0.202-0.622-0.457-0.826s-0.58-0.301-0.906-0.268c-0.316 0.044-0.604 0.202-0.811 0.444s-0.317 0.552-0.31 0.871v5.679c-0.53 0-1.039 0.211-1.414 0.586s-0.586 0.884-0.586 1.414v4.837c0.004 0.349 0.103 0.691 0.287 0.988s0.445 0.538 0.756 0.698c0.289 0.154 0.531 0.384 0.7 0.665s0.258 0.603 0.258 0.931v0.604h7.5v-1.222l0.992-0.911c0.313-0.236 0.567-0.541 0.742-0.892s0.266-0.737 0.266-1.129v-7.568c0-0.53-0.211-1.039-0.586-1.414s-0.884-0.586-1.414-0.586v-2.161c0.009-0.324-0.103-0.639-0.313-0.885s-0.504-0.406-0.825-0.449c-0.315-0.028-0.629 0.065-0.878 0.26s-0.415 0.477-0.463 0.79h0.229v7.722h-0.5v-7.722h0.25v-1.216c0.009-0.324-0.103-0.639-0.313-0.885s-0.504-0.406-0.825-0.449c-0.173-0.015-0.347 0.005-0.512 0.061s-0.316 0.145-0.444 0.262c-0.128 0.117-0.23 0.26-0.3 0.418s-0.106 0.331-0.106 0.504v0.851h0.25v7.722h-0.5v-7.722h0.234zM12.656 21.020h-0.5v-4h0.5v4zM19.706 13.899h0.5v5.222h-0.5v-5.222z"/><path d="M14.94 10.845c-0.038-0.325-0.202-0.622-0.457-0.826s-0.58-0.301-0.906-0.268c-0.316 0.044-0.604 0.202-0.811 0.444s-0.317 0.552-0.31 0.871v5.679c-0.53 0-1.039 0.211-1.414 0.586s-0.586 0.884-0.586 1.414v4.837c0.004 0.349 0.103 0.691 0.287 0.988s0.445 0.538 0.756 0.698c0.289 0.154 0.531 0.384 0.7 0.665s0.258 0.603 0.258 0.931v0.604h7.5v-1.222l0.992-0.911c0.313-0.236 0.567-0.541 0.742-0.892s0.266-0.737 0.266-1.129v-7.568c0-0.53-0.211-1.039-0.586-1.414s-0.884-0.586-1.414-0.586v-2.161c0.009-0.324-0.103-0.639-0.313-0.885s-0.504-0.406-0.825-0.449c-0.315-0.028-0.629 0.065-0.878 0.26s-0.415 0.477-0.463 0.79h0.229v7.722h-0.5v-7.722h0.25v-1.216c0.009-0.324-0.103-0.639-0.313-0.885s-0.504-0.406-0.825-0.449c-0.173-0.015-0.347 0.005-0.512 0.061s-0.316 0.145-0.444 0.262c-0.128 0.117-0.23 0.26-0.3 0.418s-0.106 0.331-0.106 0.504v0.851h0.25v7.722h-0.5v-7.722h0.234zM12.656 21.020h-0.5v-4h0.5v4zM19.706 13.899h0.5v5.222h-0.5v-5.222z"/></symbol><symbol id="icon-circle-right" viewBox="0 0 32 32"><path d="M16 0c-8.837 0-16 7.163-16 16s7.163 16 16 16 16-7.163 16-16-7.163-16-16-16zM16 29c-7.18 0-13-5.82-13-13s5.82-13 13-13 13 5.82 13 13-5.82 13-13 13z"/><path d="M11.086 22.086l2.829 2.829 8.914-8.914-8.914-8.914-2.828 2.828 6.086 6.086z"/></symbol></defs></svg>